<mxfile host="65bd71144e">
    <diagram id="MPEoFik_bNeqSjJtSBp8" name="pay-fine">
        <mxGraphModel dx="1153" dy="582" grid="1" gridSize="10" guides="1" tooltips="1" connect="1" arrows="1" fold="1" page="1" pageScale="1" pageWidth="1169" pageHeight="827" math="0" shadow="0">
            <root>
                <mxCell id="0"/>
                <mxCell id="1" parent="0"/>
                <mxCell id="46" value="alt" style="shape=umlFrame;tabWidth=110;tabHeight=30;tabPosition=left;html=1;boundedLbl=1;labelInHeader=1;width=80;height=30;fillColor=none;" vertex="1" parent="1">
                    <mxGeometry x="280" y="420" width="570" height="250" as="geometry"/>
                </mxCell>
                <mxCell id="47" value="[fineAmount &gt; 0]" style="text;fillColor=none;" vertex="1" parent="46">
                    <mxGeometry width="100" height="20" relative="1" as="geometry">
                        <mxPoint y="40" as="offset"/>
                    </mxGeometry>
                </mxCell>
                <mxCell id="48" value="[else]" style="line;strokeWidth=1;dashed=1;labelPosition=center;verticalLabelPosition=bottom;align=left;verticalAlign=top;spacingLeft=20;spacingTop=15;fillColor=none;" vertex="1" parent="46">
                    <mxGeometry y="125" width="570" height="10" as="geometry"/>
                </mxCell>
                <mxCell id="21" value="aLoan: Loan" style="shape=umlLifeline;perimeter=lifelinePerimeter;whiteSpace=wrap;html=1;container=1;collapsible=0;recursiveResize=0;outlineConnect=0;fillColor=none;" vertex="1" parent="1">
                    <mxGeometry x="560" y="120" width="100" height="570" as="geometry"/>
                </mxCell>
                <mxCell id="22" value="" style="html=1;points=[];perimeter=orthogonalPerimeter;fillColor=#808080;" vertex="1" parent="21">
                    <mxGeometry x="45" y="110" width="10" height="30" as="geometry"/>
                </mxCell>
                <mxCell id="31" value="" style="html=1;points=[];perimeter=orthogonalPerimeter;fillColor=#808080;" vertex="1" parent="21">
                    <mxGeometry x="45" y="190.12" width="10" height="30" as="geometry"/>
                </mxCell>
                <mxCell id="33" value="loanId" style="endArrow=open;startArrow=none;endFill=0;startFill=0;endSize=8;html=1;verticalAlign=bottom;dashed=1;labelBackgroundColor=none;exitX=0.001;exitY=0.862;exitDx=0;exitDy=0;exitPerimeter=0;" edge="1" parent="21" target="24">
                    <mxGeometry width="160" relative="1" as="geometry">
                        <mxPoint x="41.00999999999999" y="218.98000000000002" as="sourcePoint"/>
                        <mxPoint x="-154" y="219.12" as="targetPoint"/>
                    </mxGeometry>
                </mxCell>
                <mxCell id="34" value="" style="html=1;points=[];perimeter=orthogonalPerimeter;fillColor=#808080;" vertex="1" parent="21">
                    <mxGeometry x="45" y="260.12" width="10" height="30" as="geometry"/>
                </mxCell>
                <mxCell id="36" value="amountDue" style="endArrow=open;startArrow=none;endFill=0;startFill=0;endSize=8;html=1;verticalAlign=bottom;dashed=1;labelBackgroundColor=none;exitX=0.001;exitY=0.862;exitDx=0;exitDy=0;exitPerimeter=0;" edge="1" parent="21" target="24">
                    <mxGeometry width="160" relative="1" as="geometry">
                        <mxPoint x="41.00999999999999" y="288.98000000000013" as="sourcePoint"/>
                        <mxPoint x="-154" y="289.12" as="targetPoint"/>
                    </mxGeometry>
                </mxCell>
                <mxCell id="41" value="Fine(fineAmount, loanId, amountDue)&amp;nbsp;" style="html=1;verticalAlign=bottom;labelBackgroundColor=none;endArrow=open;endFill=0;entryX=0.481;entryY=-0.004;entryDx=0;entryDy=0;entryPerimeter=0;exitX=0.94;exitY=0.541;exitDx=0;exitDy=0;exitPerimeter=0;" edge="1" parent="21">
                    <mxGeometry width="160" relative="1" as="geometry">
                        <mxPoint x="-120.59999999999945" y="331.68000000000006" as="sourcePoint"/>
                        <mxPoint x="99.99999999999977" y="332.0000000000001" as="targetPoint"/>
                        <Array as="points">
                            <mxPoint x="70" y="332"/>
                        </Array>
                    </mxGeometry>
                </mxCell>
                <mxCell id="45" value="amountDue" style="endArrow=open;startArrow=none;endFill=0;startFill=0;endSize=8;html=1;verticalAlign=bottom;dashed=1;labelBackgroundColor=none;exitX=0.001;exitY=0.862;exitDx=0;exitDy=0;exitPerimeter=0;entryX=1.047;entryY=0.662;entryDx=0;entryDy=0;entryPerimeter=0;" edge="1" parent="21" target="24">
                    <mxGeometry width="160" relative="1" as="geometry">
                        <mxPoint x="148" y="410.0000000000001" as="sourcePoint"/>
                        <mxPoint x="-48.00999999999999" y="410.0000000000001" as="targetPoint"/>
                    </mxGeometry>
                </mxCell>
                <mxCell id="23" value=":Patron" style="shape=umlLifeline;perimeter=lifelinePerimeter;whiteSpace=wrap;html=1;container=1;collapsible=0;recursiveResize=0;outlineConnect=0;fillColor=none;" vertex="1" parent="1">
                    <mxGeometry x="350" y="120" width="170" height="570" as="geometry"/>
                </mxCell>
                <mxCell id="24" value="" style="html=1;points=[];perimeter=orthogonalPerimeter;fillColor=none;" vertex="1" parent="23">
                    <mxGeometry x="80" y="90" width="10" height="480" as="geometry"/>
                </mxCell>
                <mxCell id="27" value="payFine(aLoan)" style="html=1;verticalAlign=bottom;labelBackgroundColor=none;endArrow=open;endFill=0;entryX=-0.187;entryY=0.005;entryDx=0;entryDy=0;entryPerimeter=0;" edge="1" parent="1" target="24">
                    <mxGeometry width="160" relative="1" as="geometry">
                        <mxPoint x="280" y="212" as="sourcePoint"/>
                        <mxPoint x="380" y="210" as="targetPoint"/>
                    </mxGeometry>
                </mxCell>
                <mxCell id="28" value="getFinesPaid()" style="html=1;verticalAlign=bottom;labelBackgroundColor=none;endArrow=open;endFill=0;entryX=0.481;entryY=-0.004;entryDx=0;entryDy=0;entryPerimeter=0;" edge="1" parent="1" source="23" target="22">
                    <mxGeometry width="160" relative="1" as="geometry">
                        <mxPoint x="410" y="230" as="sourcePoint"/>
                        <mxPoint x="600" y="230" as="targetPoint"/>
                    </mxGeometry>
                </mxCell>
                <mxCell id="29" value="fineAmount" style="endArrow=open;startArrow=none;endFill=0;startFill=0;endSize=8;html=1;verticalAlign=bottom;dashed=1;labelBackgroundColor=none;exitX=0.001;exitY=0.862;exitDx=0;exitDy=0;exitPerimeter=0;" edge="1" parent="1" target="24">
                    <mxGeometry width="160" relative="1" as="geometry">
                        <mxPoint x="601.01" y="258.86" as="sourcePoint"/>
                        <mxPoint x="406" y="259" as="targetPoint"/>
                    </mxGeometry>
                </mxCell>
                <mxCell id="37" value=":Fine" style="shape=umlLifeline;perimeter=lifelinePerimeter;whiteSpace=wrap;html=1;container=1;collapsible=0;recursiveResize=0;outlineConnect=0;fillColor=none;" vertex="1" parent="1">
                    <mxGeometry x="660" y="430" width="100" height="260" as="geometry"/>
                </mxCell>
                <mxCell id="38" value="" style="html=1;points=[];perimeter=orthogonalPerimeter;fillColor=#808080;" vertex="1" parent="37">
                    <mxGeometry x="45" y="40.12" width="10" height="59.88" as="geometry"/>
                </mxCell>
                <mxCell id="32" value="getLoanId()" style="html=1;verticalAlign=bottom;labelBackgroundColor=none;endArrow=open;endFill=0;entryX=0.481;entryY=-0.004;entryDx=0;entryDy=0;entryPerimeter=0;" edge="1" parent="1" target="31" source="24">
                    <mxGeometry width="160" relative="1" as="geometry">
                        <mxPoint x="404.10000000000014" y="310.6400000000001" as="sourcePoint"/>
                        <mxPoint x="600" y="310.12" as="targetPoint"/>
                    </mxGeometry>
                </mxCell>
                <mxCell id="35" value="getAmountDue()" style="html=1;verticalAlign=bottom;labelBackgroundColor=none;endArrow=open;endFill=0;entryX=0.481;entryY=-0.004;entryDx=0;entryDy=0;entryPerimeter=0;" edge="1" parent="1" target="34" source="24">
                    <mxGeometry width="160" relative="1" as="geometry">
                        <mxPoint x="404.10000000000014" y="380.6400000000001" as="sourcePoint"/>
                        <mxPoint x="60" y="40.120000000000005" as="targetPoint"/>
                    </mxGeometry>
                </mxCell>
            </root>
        </mxGraphModel>
    </diagram>
    <diagram id="lsu7tZ-5wyPX_rLPxJTI" name="checkout">
        <mxGraphModel dx="1384" dy="698" grid="1" gridSize="10" guides="1" tooltips="1" connect="1" arrows="1" fold="1" page="1" pageScale="1" pageWidth="1169" pageHeight="827" math="0" shadow="0">
            <root>
                <mxCell id="0"/>
                <mxCell id="1" parent="0"/>
            </root>
        </mxGraphModel>
    </diagram>
</mxfile>